<?xml version="1.0" encoding="utf-8"?>
<!-- Generator: Adobe Illustrator 26.3.1, SVG Export Plug-In . SVG Version: 6.00 Build 0)  -->
<svg version="1.1" id="Layer_1" xmlns="http://www.w3.org/2000/svg" xmlns:xlink="http://www.w3.org/1999/xlink" x="0px" y="0px"
	 viewBox="0 0 261 150" style="enable-background:new 0 0 261 150;" xml:space="preserve">
<style type="text/css">
	.st0{fill:#FFFFFF;}
</style>
<g>
	<polygon class="st0" points="17.8,149.5 17.8,139.4 6.3,139.4 6.3,149.5 0,149.5 0,123.8 6.3,123.8 6.3,134.6 17.8,134.6 
		17.8,123.8 24.2,123.8 24.2,149.5 	"/>
	<path class="st0" d="M32.8,138.4v-14.6h6.3v14.6c0,2.9,1.9,5.6,5.7,5.6c3.9,0,5.7-2.6,5.7-5.6v-14.6h6.3v14.6
		c0,6.6-4.5,11.6-12,11.6C37.4,150,32.8,145,32.8,138.4"/>
	<path class="st0" d="M71.7,144.1h4c4.5,0,7.8-2.5,7.8-7.5c0-5-3.3-7.5-7.8-7.5h-4V144.1z M76.2,149.5H65.4v-25.6h10.8
		c8.7,0,13.8,5.5,13.8,12.8S84.9,149.5,76.2,149.5"/>
	<path class="st0" d="M106.6,144.3c2.4,0,3.3-1,3.3-2.1c0-1.3-0.9-2-4.9-3.1c-5.7-1.6-9-3.7-9-7.9c0-4.7,3.4-7.9,10.5-7.9
		c7.3,0,10.2,2.7,10.2,2.7l-3.4,5c0,0-2.8-2.1-6.8-2.1c-2.5,0-3.2,0.8-3.2,1.9c0,1.3,1.2,1.8,4.5,2.6c6.1,1.6,9.5,3.8,9.5,8.1
		c0,4.7-3.3,8.5-10.5,8.5c-7.4,0-11.2-3.4-11.2-3.4l3.4-4.7C99,141.9,102.8,144.3,106.6,144.3"/>
	<path class="st0" d="M144.6,136.7c0-4.4-3.3-7.4-7.5-7.4c-4.1,0-7.4,2.9-7.4,7.4c0,4.4,3.3,7.4,7.4,7.4
		C141.3,144,144.6,141.1,144.6,136.7 M123.2,136.7c0-7.3,5.3-13.4,13.9-13.4c8.8,0,14,6,14,13.4c0,7.3-5.3,13.4-14,13.4
		C128.4,150,123.2,144,123.2,136.7"/>
	<polygon class="st0" points="180.8,149.5 163.9,135.3 163.9,149.5 157.7,149.5 157.7,123.8 159.1,123.8 176,137.4 176,123.9 
		182.3,123.9 182.3,149.5 	"/>
	<polygon class="st0" points="215.8,142.6 214.7,142.6 207.8,136 207.8,149.5 201.6,149.5 201.6,123.8 203.3,123.8 215.2,134.8 
		227.2,123.8 228.9,123.8 228.9,149.5 222.6,149.5 222.6,136 	"/>
	<path class="st0" d="M261,149.5h-7.7l-4.1-7.6l-1.1-2.3c-0.3,0.6-0.8,1.6-1.1,2.3l-4.1,7.6h-7.6l8-13.1l-7.8-12.5h7.6l4,7.1
		l1.1,2.4c0.3-0.6,0.8-1.8,1.1-2.4c1.3-2.4,2.6-4.7,4-7.1h7.6l-7.9,12.5L261,149.5z"/>
	<polygon class="st0" points="135.4,49 135.4,49 135.4,49 	"/>
	<path class="st0" d="M176.1,55.6V70c0,0,0.3,3.2-1.8,4.5c-2.1,1.3-4,0.5-6.4-1.4c-2.4-2-32.5-24.2-32.5-24.2s30-22.2,32.5-24.2
		s4.3-2.7,6.4-1.4c2.1,1.3,1.8,4.5,1.8,4.5v14.5c22,0,20.7-10.6,20.7-10.6V8.1c0-2.4-2.1-8.1-12.5-8.1c-10.3,0-19,9.7-19,9.7
		l-34.6,33.8L96.2,9.7c0,0-8.7-9.7-19-9.7C66.9,0,64.7,5.7,64.7,8.1v23.7c0,0-1.3,10.6,20.7,10.6V27.9c0,0-0.3-3.2,1.8-4.5
		c2.1-1.3,4-0.5,6.4,1.4c2.4,1.9,32.4,24.1,32.5,24.1c0,0-30,22.2-32.5,24.2c-2.4,1.9-4.3,2.7-6.4,1.4c-2.1-1.3-1.8-4.5-1.8-4.5
		V55.6c-22,0-20.7,10.6-20.7,10.6v23.7c0,2.4,2.1,8.1,12.5,8.1c10.3,0,19-9.7,19-9.7l34.6-33.8l34.6,33.8c0,0,8.7,9.7,19,9.7
		c10.3,0,12.5-5.7,12.5-8.1V66.2C196.8,66.2,198.1,55.6,176.1,55.6"/>
</g>
</svg>
